<?xml version="1.0" encoding="UTF-8"?>
<svg id="Layer_1" data-name="Layer 1" xmlns="http://www.w3.org/2000/svg" xmlns:xlink="http://www.w3.org/1999/xlink" viewBox="0 0 2000 2000">
  <defs>
    <style>
      .cls-1 {
        fill: #c66d5c;
      }

      .cls-2 {
        fill: #5386e4;
      }

      .cls-3 {
        fill: #771525;
      }

      .cls-4 {
        fill: #025d45;
      }

      .cls-5 {
        fill: #b54e4e;
      }

      .cls-6 {
        fill: #f3816f;
      }

      .cls-7 {
        fill: #f45b69;
      }

      .cls-8 {
        fill: #53151a;
      }

      .cls-9 {
        fill: none;
      }

      .cls-10 {
        fill: url(#radial-gradient);
      }

      .cls-11 {
        fill: #9e343b;
      }

      .cls-12 {
        fill: #aa4242;
      }

      .cls-13 {
        fill: #fffdf7;
      }

      .cls-14 {
        fill: #fab998;
      }

      .cls-15 {
        fill: #be5d55;
      }
    </style>
    <radialGradient id="radial-gradient" cx="1000" cy="1000" fx="1000" fy="1000" r="709.22" gradientUnits="userSpaceOnUse">
      <stop offset="0" stop-color="#025d45"/>
      <stop offset=".41" stop-color="#015f46"/>
      <stop offset=".63" stop-color="#01674b"/>
      <stop offset=".81" stop-color="#017453"/>
      <stop offset=".96" stop-color="#01885e"/>
      <stop offset="1" stop-color="#018f63"/>
    </radialGradient>
  </defs>
  <path class="cls-7" d="M1378.15,1262.39c-275.13-33.36-681.06-44.14-1130.73,71.13,27.22,61.36,61.74,118.77,102.44,171.13,138.82-37.51,279.72-63.21,421.67-76.53,214.31-20.11,431.31-12.46,644.98,22.71,86.79,14.29,165.84,31.93,236.11,50.57,39.96-51.93,73.85-108.76,100.64-169.45-95.46-24.29-223.27-51.14-375.11-69.56Z"/>
  <path class="cls-7" d="M621.84,757.75c276.72,33.55,685.75,44.21,1138.5-73.19-28.45-68.5-65.86-132.33-110.83-190.02-138.61,37.44-279.31,63.07-421.05,76.36-77.76,7.29-155.87,10.94-234.05,10.94-137.29,0-274.78-11.23-410.94-33.64-86.54-14.25-165.38-31.82-235.5-50.42-44.2,57.3-81,120.58-109.01,188.43,96.25,24.78,226.88,52.62,382.88,71.53Z"/>
  <path class="cls-4" d="M1379.19,1631.85c-219.96-35.51-526.05-51.33-874.74,25.27,137.86,104.11,309.48,165.89,495.54,165.89s360.59-62.85,499.05-168.57c-37.94-8.2-77.94-15.83-119.85-22.59Z"/>
  <path class="cls-4" d="M620.79,367.2c219.77,35.46,525.5,51.3,873.77-25.06-137.68-103.68-308.94-165.15-494.57-165.15s-359.79,62.54-498.07,167.83c37.66,8.12,77.33,15.69,118.86,22.39Z"/>
  <path class="cls-2" d="M1406.92,1079.87c163.42,20.14,299.82,49.15,401.4,75.36,9.6-50.28,14.7-102.16,14.7-155.22,0-47.01-4.01-93.07-11.57-137.93-295.78,77.2-574.04,102.9-813.15,102.9-152.98,0-289.87-10.48-405.22-24.7-165.27-20.37-302.91-49.81-404.84-76.25-7.36,44.24-11.24,89.65-11.24,135.98,0,53.75,5.21,106.28,15.05,157.17,483.58-125.6,919.95-113.65,1214.88-77.31Z"/>
  <circle class="cls-10" cx="1000" cy="1000" r="709.22"/>
  <g>
    <path class="cls-9" d="M692.23,689.76c-21.83,1.73-42.69,7.26-62.56,16.52-22.82,10.66-43.79,24.15-62.92,40.5-4.22,3.6-10.29,10.23-18.25,19.9"/>
    <path class="cls-9" d="M1330.58,675.1c-42.49-33.96-89.45-59.44-140.96-76.47-19.3-6.38-37.5-11.37-54.65-14.99-56.97-12.02-118.37-12.19-175.05,2.66-3.74.99-7.68,3.43-10.83,4.79-2.81,1.22-3.2.71-1.16-1.59,13.61-15.22,29.48-29.59,47.62-43.11,8.53-6.35,14.51-11.37,17.97-15.05,1.76-1.87,1.73-4.82-.11-6.63-2.35-2.35-5.7-4.17-9.98-5.44-15.76-4.68-33.08-6.09-51.95-4.25-57.57,5.64-104.59,30.13-141.13,73.47-9.44,11.2-17.12,22.79-23.07,34.78-6.94,14.03-12.07,27.15-15.36,39.43-.82,3.12-1.81,3.15-2.92.11-3.09-8.36-4.48-17.63-4.14-27.81.62-19.81,1.02-31.32,1.19-34.58.14-2.66-.2-4.82-1.02-6.49-1.81-3.63-7.09-3.34-8.48.45-6.77,18.4-6.18,41.38-2.44,60.4"/>
    <path class="cls-9" d="M1330.58,675.1c34.86,29.45,63.77,62.27,86.71,98.47,19.76,31.18,34.69,65.65,44.87,103.37"/>
    <path class="cls-9" d="M1462.15,876.94c-35.43,18.93-74.55,28.37-117.37,28.34-39.2-.03-78.4-.23-117.6-.54-79.87-.65-159.1,5.98-237.7,19.9-32.88,5.81-68.74,7.54-107.54,5.16"/>
    <path class="cls-9" d="M881.94,929.81c-14.8-13.12-25.59-24.29-32.43-33.5-5.81-7.79-11.76-15.73-17.86-23.78-.4-.54-.74-.48-1.02.11l-.68,1.39c-.06.14-.06.31.03.45,17.72,26.13,36.05,51.62,55.04,76.47,6.49,8.5,13.69,15.36,21.09,22.65,2.21,2.18,6.38,6.94,12.53,14.29,6.8,8.14,11.71,13.21,14.71,15.22,6.32,4.25,17.77,11.56,25.08,18.76,6.29,6.18,14.03,13.35,23.21,21.49,2.58,2.3,3.6,4.85,3.06,7.68-.2.94-.77,1.36-1.73,1.22-26.36-4.05-50.4-9.1-72.08-15.19-9.33-2.61-18.96-6.21-28.88-10.8-14.88-6.89-24.06-11.51-27.61-13.89-6.77-4.56-13.41-9.01-19.93-13.38-6.29-4.25-12.58-9.21-18.91-14.85-28.91-25.85-50.06-57.28-63.41-94.33"/>
    <path class="cls-9" d="M752.18,889.81c-5.47-16.3-11.71-32.4-18.71-48.24-.2-.43-.43-.71-.68-.82-.28-.14-.6-.17-.94-.11-.96.2-1.42.79-1.36,1.79,1.79,27.75,2.32,44.53,1.62,50.34-1.45,11.76-2.83,23.55-4.11,35.32-1.42,13.01-3.37,24.66-5.87,34.92-4.62,19.08-9.84,37.87-15.7,56.38"/>
    <path class="cls-9" d="M706.43,1019.37c-61.11,2.13-121.91,1.76-182.4-1.13"/>
    <path class="cls-9" d="M524.04,1018.24c-6.6-42.91-4.62-84.92,5.9-125.99,9.07-35.35,24.63-65.36,48.02-92.43,16.95-19.61,36.34-34.41,58.13-44.36"/>
    <path class="cls-9" d="M636.08,755.46c23.1-6.72,45.35-11.88,66.78-15.45,1.39-.23,2.81-.85,4.25-1.87.88-.6.77-.88-.28-.82l-18.31,1.02"/>
    <path class="cls-9" d="M688.52,738.34c.43-.51,1.05-.88,1.84-1.08.82-.23.82-.48,0-.74-1.84-.6-3.46-.85-4.85-.77-32.4,2.27-62.75,11.62-91.13,28.09-22.39,13.01-43.93,28.32-64.63,45.92-.99.82-2.49.17-2.58-1.11-.31-5.13.82-10.15,3.37-15.05,5.05-9.64,11.03-18.62,17.94-26.93M692.23,689.76c24.69-1.79,48.58,1.59,71.74,10.12.71.26,1.42-.4,1.25-1.13l-11.11-43.96"/>
    <path class="cls-9" d="M881.94,929.81c19.36,16.27,39.94,30.58,61.73,42.94,10.6,6.01,21.71,11.25,33.33,15.73,13.12,5.07,24.8,9.07,35.03,12.02,13.35,3.85,34.35,7.79,63.01,11.85,9.86,1.39,22.53,2.07,38.01,2.01,22.48-.06,35.23-.26,38.29-.62,27.58-3.26,45.44-5.64,53.54-7.17,32.96-6.26,67.29-17.55,102.92-33.84,11.2-5.13,23.3-11,36.31-17.57,11.37-5.78,22.14-9.27,32.96-14.29,2.95-1.33,3.54-.65,1.81,2.07-1.39,2.15-3.85,5.87-7.45,11.14-2.78,4.05-5.73,7.34-8.82,9.86-7.85,6.35-14.03,11.62-18.57,15.79-6.6,6.07-13.04,11-19.3,14.77-12.95,7.85-26.19,13.78-39.71,17.8-2.49.74-3.06,2.21-1.7,4.42,16.18,26.33,29.59,54.73,40.25,85.17,3.06,8.73,10.4,19.1,22.02,31.12.68.71,1.13.6,1.39-.34,6.18-23.5,9.81-46.06,10.88-67.69.14-3.26.96-6.29,2.47-9.07.62-1.16,2.32-1.08,2.86.11,3.17,6.89,5.07,14.03,5.73,21.37"/>
    <path class="cls-9" d="M1368.95,1077.39c.06,20.75-.57,39.34-1.87,55.75-1.11,13.63-4.05,27.1-8.84,40.42-4.19,11.59-12.73,24.52-18.25,34.27-.48.85-.71,1.76-.71,2.72v20.15c0,1.36-1.59,2.13-2.64,1.28l-1.11-.88"/>
    <path class="cls-9" d="M1335.54,1231.11c-.17-.26-.34-.48-.48-.71"/>
    <path class="cls-9" d="M1335.06,1230.4c-2.49-43.91-11.93-86.28-28.29-127.07-11.99-29.87-22.22-53.77-30.67-71.71-2.15-4.54-4.68-8.82-7.54-12.84-.51-.74-1.47-1.05-2.32-.74-23.41,8.81-41.64,14.09-54.65,15.76-11.37,1.47-21.12,2.83-29.19,4.08-9.89,1.5-19.7,2.13-29.48,1.81-44.81-1.42-88.49-9.44-131.06-24.06-7.23-2.47-14.09-5.44-20.58-8.9-7.23-3.83-14.29-7.14-21.12-9.92-.23-.09-.48-.03-.62.17l-.82,1.11c-.54.77-.4,1.36.42,1.81,29.96,16.13,45.66,24.55,47.08,25.2,12.67,5.87,26.67,11.65,41.98,17.4,3.57,1.33,7.94,3.57,13.1,6.72,1.98,1.22,2.01,4.08.06,5.36-3.17,2.07-6.92,3.66-11.25,4.79-9.67,2.52-21.54,4.45-35.66,5.84-10.4,1.05-30.19.62-59.3-1.28-31.72-2.07-58.16-11.11-89.37-23.72-17.89-7.23-33.64-15.84-47.25-25.85-27.55-20.24-50.65-44.64-69.27-73.21-4.68-7.17-9.58-17.12-14.71-29.85"/>
    <path class="cls-9" d="M644.02,1239.21c-27.35-28.6-51.47-59.44-72.39-92.54"/>
    <path class="cls-9" d="M688.52,738.34c-17.8,1.98-35.29,7.68-52.44,17.12"/>
    <path class="cls-9" d="M524.04,1018.24c6.32,46.2,22.19,89,47.59,128.43"/>
    <line class="cls-9" x1="571.63" y1="1146.67" x2="561.93" y2="1153.27"/>
    <path class="cls-9" d="M561.93,1153.27c-17.83,12.19-29.53,27.83-35.15,46.91-11.08,37.67-3.29,71.6,23.41,101.81,30.19,34.15,68.17,46.51,113.92,37.13"/>
    <line class="cls-9" x1="664.12" y1="1339.13" x2="677.18" y2="1335.04"/>
    <path class="cls-9" d="M677.18,1335.04c2.24-.34,3.77.31,4.59,1.93,13.21,25.71,28,46.99,44.39,63.92,19.19,19.81,39.6,34.86,61.2,45.21,29.99,14.34,63.69,25.2,101.13,32.57.65.11,1.25.6,1.84,1.45.54.77.31,1.19-.62,1.22l-5.39.25"/>
    <path class="cls-9" d="M1464.59,889.13c-.31,14.77,0,29.51.96,44.22.6,8.82-.11,16.16-2.13,22.05-4.68,13.66-12.81,33.62-24.4,59.89-4.31,9.75-13.75,22.93-28.32,39.54-3.2,3.63-8.02,7.88-14.51,12.78-4.42,3.34-9.44,7.45-15.05,12.33-4,3.49-8.05,2.64-12.19-2.55"/>
    <line class="cls-9" x1="752.18" y1="889.81" x2="754.53" y2="911.3"/>
    <path class="cls-9" d="M754.53,911.3c-3.43,26.67-6.8,44.53-10.06,53.6-8.39,23.36-13.41,38.58-20.83,55.16-12.05,26.96-22.65,51.67-31.83,74.18-13.97,34.16-19.22,69.16-22.22,107.88"/>
    <path class="cls-9" d="M669.59,1202.11c-5.53-2.69-9.58-8.5-12.1-17.38-1.79-6.32-3.85-12.56-6.18-18.71-7.11-18.74-11.59-38.09-13.49-58.08-.99-10.71-.28-27.98,2.13-51.81.06-.48.23-.82.51-1.02.2-.14.43-.28.62-.37.91-.37,1.9.26,1.98,1.25,2.78,31.89,10.54,62.36,23.27,91.41.71,1.62,1.3,1.56,1.73-.14,1.36-5.13,3.12-12.22,5.3-21.29,1.25-5.24,3-11.48,5.24-18.76,2.07-6.63,3.71-12.95,4.93-18.93.43-2.1,2.66-5.22,3.37-7.94,5.27-20.41,11.79-40.73,19.53-60.97"/>
    <path class="cls-9" d="M1165.84,1465.57c26.9-7.91,52.69-19.44,77.41-34.64,9.16-5.64,16.41-10.83,21.8-15.59,24.6-21.85,44.42-48.07,59.41-78.68.31-.6,1.11-1.16,2.41-1.73"/>
    <path class="cls-9" d="M1326.86,1334.93c42.86,14.29,86.65,6.29,118.17-25.23,22.93-22.87,36.54-52.61,34.55-85.32-1.64-26.9-12.95-48.67-33.96-65.36-5.36-4.28-11.99-6.41-19.9-6.32"/>
    <path class="cls-9" d="M1425.73,1152.71c1.45-3.83,2.78-7.48,4-10.91,1.5-4.31,3.06-7.82,4.71-10.57,6.15-10.32,10.12-18.2,11.85-23.61,3.83-11.93,8.48-24.15,14-36.65,3.94-8.87,6.58-16.04,7.91-21.57,1.73-7.11,3.09-14.71,4.02-22.82,5.41-46.2,2.89-92.01-7.62-137.44"/>
    <line class="cls-9" x1="1464.59" y1="889.13" x2="1462.15" y2="876.94"/>
    <path class="cls-9" d="M1358.67,1241.37c.65.6.94,1.13.85,1.67"/>
    <line class="cls-9" x1="1359.52" y1="1243.04" x2="1352.88" y2="1263.39"/>
    <line class="cls-9" x1="1352.88" y1="1263.39" x2="1341.8" y2="1293.69"/>
    <path class="cls-9" d="M1341.8,1293.69l-14.74,36.68c-.34.85-.48,1.73-.4,2.64l.2,1.93"/>
    <path class="cls-9" d="M677.18,1335.04c1.13-.99,1.47-2.04,1.02-3.2-3.4-9.04-6.97-18.03-10.71-26.96-4.08-9.72-7.31-18.03-9.69-24.89-2.89-8.36-5.75-16.78-8.56-25.25"/>
    <line class="cls-9" x1="649.24" y1="1254.75" x2="642.06" y2="1242.16"/>
    <path class="cls-9" d="M642.06,1242.16c.08-.54.74-1.5,1.96-2.95"/>
    <path class="cls-9" d="M644.02,1239.21l22.73,27.01c.26.28.62.43,1.02.37,1.13-.2,1.53-.99,1.22-2.44"/>
    <line class="cls-9" x1="1425.73" y1="1152.71" x2="1410.96" y2="1173.57"/>
    <line class="cls-9" x1="1410.96" y1="1173.57" x2="1358.67" y2="1241.37"/>
    <path class="cls-9" d="M1358.67,1241.37c-7,6.6-12.58,13.58-16.78,20.92-3.06,5.39-4.73,4.99-5.02-1.22l-1.33-29.96"/>
    <path class="cls-9" d="M1335.06,1230.4c-6.21-24.12-12.41-48.24-18.59-72.36-2.52-9.89-7.71-25.03-13.32-37.33-5.24-11.54-8.53-18.76-9.81-21.74-3.12-7.17-6.66-14.26-10.66-21.29-6.26-11.05-10.49-19.25-12.64-24.6-.45-1.16-1.76-1.73-2.92-1.3-28,10.4-57.26,14.31-87.73,11.71-6.09-.54-12.64-.94-19.61-1.25-10.23-.45-16.78-.99-19.64-1.62-17.52-3.91-34.58-7.09-51.16-9.52-.94-.14-1.73.11-2.38.82-7.91,8.56-12.81,13.35-14.77,14.34-9.95,5.16-21.17,8.08-33.62,8.76-41.86,2.3-81.49-2.15-118.88-13.38-18.74-5.64-36.42-12.19-53.12-19.67-27.38-12.3-52.98-29-76.78-50.08-12.5-11.05-23.33-26.02-32.6-37.67-3.49-4.37-5.36-3.74-5.58,1.84-.43,9.24-1.87,18.2-4.39,26.84-2.1,7.14-6.32,15.79-8.96,23.87-3.26,10.03-5.27,16.07-6.04,18.11-9.89,26.28-19.93,53.09-30.1,80.44-4.17,11.2-7.31,20.89-9.38,29.05-7.62,29.93-10.06,52.92-14.94,92.01-1.53,12.41-6.09,24.94-8.45,37.78"/>
    <line class="cls-9" x1="668.99" y1="1264.16" x2="669.59" y2="1202.11"/>
    <path class="cls-9" d="M642.06,1242.16l-13.46-7.68c-1.64-.94-3.68-.88-5.3.14-9.1,5.87-14.99,14.88-17.74,27.07-.23.96.11,1.62,1.05,1.96,5.1,1.9,11.54,2.78,19.3,2.64,9.67-.2,17.43-4.02,23.33-11.54"/>
    <path class="cls-9" d="M664.12,1339.13l-9.61-36.08c-.26-.94-.85-1.36-1.81-1.28-16.41,1.5-30.19.74-41.38-2.27-27.27-7.31-48.33-32.28-48.84-60.91-.34-20.21,8.05-37.56,20.49-53.34.68-.85.54-1.56-.4-2.13l-2.75-1.67c-.62-.37-1.13-.88-1.53-1.5l-16.35-26.67"/>
    <path class="cls-9" d="M1352.88,1263.39c8.08,2.49,16.3,3.74,24.66,3.71,10.12-.03,16.86-4.42,11.9-15.48-3.37-7.51-8.56-12.87-15.56-16.01-.88-.4-1.76-.48-2.69-.23-4.53,1.16-8.42,3.71-11.68,7.65"/>
    <path class="cls-9" d="M1354.75,784.03c9.02-6.6,9.64-21.08,1.4-32.36-8.25-11.26-22.26-15.06-31.26-8.45-9.02,6.6-9.64,21.08-1.4,32.36,8.25,11.26,22.26,15.06,31.26,8.45M1318.01,801.67c1.77-11.38-6.76-22.12-19.03-24.03-12.26-1.89-23.65,5.79-25.4,17.15-1.77,11.38,6.76,22.12,19.03,24.03,12.26,1.89,23.65-5.79,25.4-17.15M582.39,887.49c10.47,7.51,27.28,1.99,37.51-12.33,10.26-14.32,10.06-31.98-.42-39.48-10.47-7.51-27.28-1.99-37.51,12.33-10.26,14.32-10.06,31.97.42,39.48M651.8,890.94c-4.27-7.62-14.36-10.11-22.51-5.54-8.15,4.58-11.29,14.47-7,22.1,4.27,7.62,14.36,10.11,22.51,5.54,8.15-4.58,11.29-14.47,7-22.1"/>
    <path class="cls-9" d="M795.27,1074.08c-11.39,2.58-30.95,9.35-28.91,23.61.54,3.8,2.75,5.92,6.6,6.38,1.5.17,3.88-.6,7.2-2.32,5.24-2.69,12.39-6.66,19.5-8.25,7.11-1.62,15.25-1.13,21.14-.94,3.71.11,6.24-.23,7.51-1.02,3.29-2.07,4.34-4.93,3.2-8.59-4.28-13.75-24.86-11.45-36.25-8.87"/>
    <path class="cls-9" d="M1200.7,1093.81c4.31,1.22,9.89,3.97,16.78,8.3,5.13,3.2,9.3,2.1,12.44-3.37.45-.79.6-1.64.43-2.52-1.16-6.52-4.85-11.39-11.05-14.63-8.82-4.62-17.97-7.62-27.47-9.04-7.82-1.16-15.14.6-21.94,5.22-2.64,1.79-3.97,4-3.97,6.6.03,4.22,1.67,7,4.93,8.36.94.4,1.9.54,2.92.4,11.45-1.36,20.44-1.13,26.93.68"/>
    <path class="cls-9" d="M810.41,1275.57c30.8,5.93,60.73-14.93,66.82-46.62,6.1-31.69-13.91-62.19-44.73-68.1-30.8-5.93-60.73,14.93-66.82,46.62-6.1,31.69,13.91,62.19,44.73,68.1M1172.88,1276.61c31.37,3.19,59.43-20.28,62.71-52.43,3.27-32.16-19.52-60.79-50.88-63.97-31.37-3.19-59.43,20.28-62.71,52.43-3.27,32.16,19.52,60.79,50.88,63.97"/>
    <path class="cls-9" d="M979.11,1240.29c-2.69-2.32-3.77-1.9-3.23,1.28,1.64,9.44,7.45,14.8,17.43,16.13,11.14,1.5,20.75-.94,28.83-7.37.91-.71,1.81-2.1,2.52-3.91.48-1.16.6-2.38.37-3.71-.2-1.05-.68-1.19-1.45-.48-8.08,7.51-17.6,10.54-28.51,9.1-3.37-.43-6.24-1.79-8.62-4.08-4.45-4.28-6.92-6.58-7.34-6.94"/>
    <path class="cls-9" d="M818.89,1312.71c1.63-20.83-15.24-39.14-37.7-40.9-22.47-1.76-42,13.69-43.63,34.49-1.63,20.83,15.24,39.14,37.7,40.9,22.47,1.76,42-13.69,43.63-34.49M1265.27,1309.22c.09-20.95-18.03-37.98-40.4-38.07-22.38-.09-40.58,16.84-40.66,37.78-.09,20.95,18.03,37.98,40.4,38.07,22.38.09,40.58-16.84,40.66-37.78M952.09,1377.14c6.09,4.28,12.58,7.54,19.53,9.84,5.02,1.67,12.13,2.58,21.29,2.75,8.19.14,16.35.45,24.49.94,7.23.43,15.11-2.01,23.64-7.31"/>
    <path class="cls-9" d="M1041.04,1383.34c14.12-5.98,25.76-14.63,34.92-25.94,12.41-15.33,20.12-31.8,16.21-51.7-1.96-9.86-7.94-14.68-17.97-14.46-4.96.11-9.84.43-14.63.94"/>
    <line class="cls-9" x1="1059.58" y1="1292.19" x2="944.95" y2="1291.73"/>
    <path class="cls-9" d="M944.95,1291.73c-8.59-.71-14.29-.85-17.09-.37-24.46,4.14-17.94,36-8.93,50.71,9.86,16.1,20.92,27.78,33.16,35.06"/>
    <path class="cls-9" d="M944.95,1291.73c.09,4.34-.91,9.75.31,13.26,3.57,10.03,18.99,14.85,28.68,16.87,22.36,4.62,43.91,3.97,64.68-1.93,8.45-2.38,21.8-8.62,21.17-18.96-.26-4.14-.31-7.06-.23-8.79"/>
    <path class="cls-9" d="M1041.04,1383.34l-3.51.06c-1.25.03-1.33-.28-.23-.88l19.84-10.86c1.84-.99,1.84-3.68-.03-4.93-4.68-3.09-9.78-5.75-15.33-7.99-4.71-1.9-10.15-3.23-16.3-3.97-23.87-2.81-53.17-.94-73.36,13.49-.82.6-1.11,1.36-.85,2.32.37,1.42,1.33,2.49,2.89,3.26,1.59.77,1.11,3.17-.68,3.23l-1.39.06"/>
    <path class="cls-9" d="M838.04,1214.88c7.4-.86,12.64-8.06,11.7-16.04-.93-7.98-7.7-13.76-15.1-12.9-7.4.86-12.64,8.06-11.7,16.04.93,7.98,7.7,13.76,15.1,12.9M1196.55,1214.7c7.24-2.53,10.93-10.92,8.19-18.72-2.73-7.82-10.84-12.07-18.08-9.53-7.24,2.53-10.93,10.92-8.19,18.72,2.73,7.82,10.84,12.07,18.08,9.53"/>
    <path class="cls-1" d="M1330.58,675.1c34.86,29.45,63.77,62.27,86.71,98.47,19.76,31.18,34.69,65.65,44.87,103.37-35.43,18.93-74.55,28.37-117.37,28.34-39.2-.03-78.4-.23-117.6-.54-79.87-.65-159.1,5.98-237.7,19.9-32.88,5.81-68.74,7.54-107.54,5.16-14.8-13.12-25.59-24.29-32.43-33.5-5.81-7.79-11.76-15.73-17.86-23.78-.4-.54-.74-.48-1.02.11l-.68,1.39c-.06.14-.06.31.03.45,17.72,26.13,36.05,51.62,55.04,76.47,6.49,8.5,13.69,15.36,21.09,22.65,2.21,2.18,6.38,6.94,12.53,14.29,6.8,8.14,11.71,13.21,14.71,15.22,6.32,4.25,17.77,11.56,25.08,18.76,6.29,6.18,14.03,13.35,23.21,21.49,2.58,2.3,3.6,4.85,3.06,7.68-.2.94-.77,1.36-1.73,1.22-26.36-4.05-50.4-9.1-72.08-15.19-9.33-2.61-18.96-6.21-28.88-10.8-14.88-6.89-24.06-11.51-27.61-13.89-6.77-4.56-13.41-9.01-19.93-13.38-6.29-4.25-12.58-9.21-18.91-14.85-28.91-25.85-50.06-57.28-63.41-94.33-5.47-16.3-11.71-32.4-18.71-48.24-.2-.43-.43-.71-.68-.82-.28-.14-.6-.17-.94-.11-.96.2-1.42.79-1.36,1.79,1.79,27.75,2.32,44.53,1.62,50.34-1.45,11.76-2.83,23.55-4.11,35.32-1.42,13.01-3.37,24.66-5.87,34.92-4.62,19.08-9.84,37.87-15.7,56.38-61.11,2.13-121.91,1.76-182.4-1.13-6.6-42.91-4.62-84.92,5.9-125.99,9.07-35.35,24.63-65.36,48.02-92.43,16.95-19.61,36.34-34.41,58.13-44.36,23.1-6.72,45.35-11.88,66.78-15.45,1.39-.23,2.81-.85,4.25-1.87.88-.6.77-.88-.28-.82l-18.31,1.02c.43-.51,1.05-.88,1.84-1.08.82-.23.82-.48,0-.74-1.84-.6-3.46-.85-4.85-.77-32.4,2.27-62.75,11.62-91.13,28.09-22.39,13.01-43.93,28.32-64.63,45.92-.99.82-2.49.17-2.58-1.11-.31-5.13.82-10.15,3.37-15.05,5.05-9.64,11.03-18.62,17.94-26.93,7.96-9.67,14.03-16.3,18.25-19.9,19.13-16.35,40.11-29.85,62.92-40.5,19.87-9.27,40.73-14.8,62.56-16.52,24.69-1.79,48.58,1.59,71.74,10.12.71.26,1.42-.4,1.25-1.13l-11.11-43.96c-3.74-19.02-4.34-42.01,2.44-60.4,1.39-3.8,6.66-4.08,8.48-.45.82,1.67,1.16,3.83,1.02,6.49-.17,3.26-.57,14.77-1.19,34.58-.34,10.18,1.05,19.44,4.14,27.81,1.11,3.03,2.1,3,2.92-.11,3.29-12.27,8.42-25.4,15.36-39.43,5.95-11.99,13.63-23.58,23.07-34.78,36.54-43.34,83.56-67.83,141.13-73.47,18.88-1.84,36.2-.43,51.95,4.25,4.28,1.28,7.62,3.09,9.98,5.44,1.84,1.81,1.87,4.76.11,6.63-3.46,3.68-9.44,8.7-17.97,15.05-18.14,13.52-34.01,27.89-47.62,43.11-2.04,2.3-1.64,2.81,1.16,1.59,3.15-1.36,7.09-3.8,10.83-4.79,56.69-14.85,118.08-14.68,175.05-2.66,17.15,3.63,35.35,8.62,54.65,14.99,51.5,17.03,98.47,42.52,140.96,76.47M1354.75,784.03c9.02-6.6,9.64-21.08,1.4-32.36-8.25-11.26-22.26-15.06-31.26-8.45-9.02,6.6-9.64,21.08-1.4,32.36,8.25,11.26,22.26,15.06,31.26,8.45M1318.01,801.67c1.77-11.38-6.76-22.12-19.03-24.03-12.26-1.89-23.65,5.79-25.4,17.15-1.77,11.38,6.76,22.12,19.03,24.03,12.26,1.89,23.65-5.79,25.4-17.15M582.39,887.49c10.47,7.51,27.28,1.99,37.51-12.33,10.26-14.32,10.06-31.98-.42-39.48-10.47-7.51-27.28-1.99-37.51,12.33-10.26,14.32-10.06,31.97.42,39.48M651.8,890.94c-4.27-7.62-14.36-10.11-22.51-5.54-8.15,4.58-11.29,14.47-7,22.1,4.27,7.62,14.36,10.11,22.51,5.54,8.15-4.58,11.29-14.47,7-22.1h0Z"/>
    <path class="cls-12" d="M636.08,755.46c17.15-9.44,34.64-15.14,52.44-17.12l18.31-1.02c1.05-.06,1.16.23.28.82-1.45,1.02-2.86,1.64-4.25,1.87-21.43,3.57-43.68,8.73-66.78,15.45h0Z"/>
    <path class="cls-1" d="M1354.75,784.03c-9.01,6.61-23.01,2.81-31.26-8.45-8.24-11.27-7.62-25.76,1.4-32.36,9.01-6.61,23.01-2.81,31.26,8.45,8.24,11.27,7.62,25.76-1.4,32.36h0Z"/>
    <path class="cls-1" d="M1318.01,801.67c-1.75,11.36-13.14,19.04-25.4,17.15-12.26-1.91-20.79-12.65-19.03-24.03,1.75-11.36,13.14-19.04,25.4-17.15,12.26,1.91,20.79,12.65,19.03,24.03h0Z"/>
    <path class="cls-1" d="M582.39,887.49c-10.48-7.51-10.68-25.17-.42-39.48,10.24-14.31,27.05-19.84,37.51-12.33,10.48,7.51,10.68,25.17.42,39.48-10.24,14.31-27.05,19.84-37.51,12.33h0Z"/>
    <path class="cls-12" d="M752.18,889.81l2.35,21.48c-3.43,26.67-6.8,44.53-10.06,53.6-8.39,23.36-13.41,38.58-20.83,55.16-12.05,26.96-22.65,51.67-31.83,74.18-13.97,34.16-19.22,69.16-22.22,107.88-5.53-2.69-9.58-8.5-12.1-17.38-1.79-6.32-3.85-12.56-6.18-18.71-7.11-18.74-11.59-38.09-13.49-58.08-.99-10.71-.28-27.98,2.13-51.81.06-.48.23-.82.51-1.02.2-.14.43-.28.62-.37.91-.37,1.9.26,1.98,1.25,2.78,31.89,10.54,62.36,23.27,91.41.71,1.62,1.3,1.56,1.73-.14,1.36-5.13,3.12-12.22,5.3-21.29,1.25-5.24,3-11.48,5.24-18.76,2.07-6.63,3.71-12.95,4.93-18.93.43-2.1,2.66-5.22,3.37-7.94,5.27-20.41,11.79-40.73,19.53-60.97,5.87-18.51,11.08-37.3,15.7-56.38,2.49-10.26,4.45-21.91,5.87-34.92,1.28-11.76,2.66-23.55,4.11-35.32.71-5.81.17-22.59-1.62-50.34-.06-.99.4-1.59,1.36-1.79.34-.06.65-.03.94.11.26.11.48.4.68.82,7,15.84,13.24,31.94,18.71,48.24h0Z"/>
    <path class="cls-11" d="M881.94,929.81c19.36,16.27,39.94,30.58,61.73,42.94,10.6,6.01,21.71,11.25,33.33,15.73,13.12,5.07,24.8,9.07,35.03,12.02,13.35,3.85,34.35,7.79,63.01,11.85,9.86,1.39,22.53,2.07,38.01,2.01,22.48-.06,35.23-.26,38.29-.62,27.58-3.26,45.44-5.64,53.54-7.17,32.96-6.26,67.29-17.55,102.92-33.84,11.2-5.13,23.3-11,36.31-17.57,11.37-5.78,22.14-9.27,32.96-14.29,2.95-1.33,3.54-.65,1.81,2.07-1.39,2.15-3.85,5.87-7.45,11.14-2.78,4.05-5.73,7.34-8.82,9.86-7.85,6.35-14.03,11.62-18.57,15.79-6.6,6.07-13.04,11-19.3,14.77-12.95,7.85-26.19,13.78-39.71,17.8-2.49.74-3.06,2.21-1.7,4.42,16.18,26.33,29.59,54.73,40.25,85.17,3.06,8.73,10.4,19.1,22.02,31.12.68.71,1.13.6,1.39-.34,6.18-23.5,9.81-46.06,10.88-67.69.14-3.26.96-6.29,2.47-9.07.62-1.16,2.32-1.08,2.86.11,3.17,6.89,5.07,14.03,5.73,21.37.06,20.75-.57,39.34-1.87,55.75-1.11,13.63-4.05,27.1-8.84,40.42-4.19,11.59-12.73,24.52-18.25,34.27-.48.85-.71,1.76-.71,2.72v20.15c0,1.36-1.59,2.13-2.64,1.28l-1.11-.88c-.17-.26-.34-.48-.48-.71-2.49-43.91-11.93-86.28-28.29-127.07-11.99-29.87-22.22-53.77-30.67-71.71-2.15-4.54-4.68-8.82-7.54-12.84-.51-.74-1.47-1.05-2.32-.74-23.41,8.81-41.64,14.09-54.65,15.76-11.37,1.47-21.12,2.83-29.19,4.08-9.89,1.5-19.7,2.13-29.48,1.81-44.81-1.42-88.49-9.44-131.06-24.06-7.23-2.47-14.09-5.44-20.58-8.9-7.23-3.83-14.29-7.14-21.12-9.92-.23-.09-.48-.03-.62.17l-.82,1.11c-.54.77-.4,1.36.42,1.81,29.96,16.13,45.66,24.55,47.08,25.2,12.67,5.87,26.67,11.65,41.98,17.4,3.57,1.33,7.94,3.57,13.1,6.72,1.98,1.22,2.01,4.08.06,5.36-3.17,2.07-6.92,3.66-11.25,4.79-9.67,2.52-21.54,4.45-35.66,5.84-10.4,1.05-30.19.62-59.3-1.28-31.72-2.07-58.16-11.11-89.37-23.72-17.89-7.23-33.64-15.84-47.25-25.85-27.55-20.24-50.65-44.64-69.27-73.21-4.68-7.17-9.58-17.12-14.71-29.85l-2.35-21.48c13.35,37.05,34.49,68.48,63.41,94.33,6.32,5.64,12.61,10.6,18.91,14.85,6.52,4.37,13.15,8.82,19.93,13.38,3.54,2.38,12.73,7,27.61,13.89,9.92,4.59,19.56,8.19,28.88,10.8,21.68,6.09,45.72,11.14,72.08,15.19.96.14,1.53-.28,1.73-1.22.54-2.83-.48-5.39-3.06-7.68-9.18-8.13-16.92-15.31-23.21-21.49-7.31-7.2-18.76-14.51-25.08-18.76-3-2.01-7.91-7.09-14.71-15.22-6.15-7.34-10.32-12.1-12.53-14.29-7.4-7.28-14.6-14.14-21.09-22.65-18.99-24.86-37.33-50.34-55.04-76.47-.09-.14-.09-.31-.03-.45l.68-1.39c.28-.6.62-.65,1.02-.11,6.09,8.05,12.05,15.99,17.86,23.78,6.83,9.21,17.63,20.38,32.43,33.5h0Z"/>
    <path class="cls-15" d="M1462.15,876.94l2.44,12.19c-.31,14.77,0,29.51.96,44.22.6,8.82-.11,16.16-2.13,22.05-4.68,13.66-12.81,33.62-24.4,59.89-4.31,9.75-13.75,22.93-28.32,39.54-3.2,3.63-8.02,7.88-14.51,12.78-4.42,3.34-9.44,7.45-15.05,12.33-4,3.49-8.05,2.64-12.19-2.55-.65-7.34-2.55-14.48-5.73-21.37-.54-1.19-2.24-1.28-2.86-.11-1.5,2.78-2.32,5.81-2.47,9.07-1.08,21.63-4.71,44.19-10.88,67.69-.25.94-.71,1.05-1.39.34-11.62-12.02-18.96-22.39-22.02-31.12-10.66-30.44-24.06-58.84-40.25-85.17-1.36-2.21-.79-3.68,1.7-4.42,13.52-4.02,26.76-9.95,39.71-17.8,6.26-3.77,12.7-8.7,19.3-14.77,4.54-4.17,10.71-9.44,18.57-15.79,3.09-2.52,6.04-5.81,8.82-9.86,3.6-5.27,6.07-8.99,7.45-11.14,1.73-2.72,1.13-3.4-1.81-2.07-10.83,5.02-21.6,8.5-32.96,14.29-13.01,6.58-25.11,12.44-36.31,17.57-35.63,16.3-69.95,27.58-102.92,33.84-8.11,1.53-25.96,3.91-53.54,7.17-3.06.37-15.82.57-38.29.62-15.48.06-28.15-.62-38.01-2.01-28.66-4.05-49.66-7.99-63.01-11.85-10.23-2.95-21.91-6.94-35.03-12.02-11.62-4.48-22.73-9.72-33.33-15.73-21.8-12.36-42.37-26.67-61.73-42.94,38.8,2.38,74.66.65,107.54-5.16,78.6-13.92,157.82-20.55,237.7-19.9,39.2.31,78.4.51,117.6.54,42.83.03,81.94-9.41,117.37-28.34h0Z"/>
    <path class="cls-1" d="M651.8,890.94c4.29,7.63,1.14,17.52-7,22.1-8.15,4.58-18.24,2.08-22.51-5.54-4.29-7.63-1.14-17.52,7-22.1,8.15-4.58,18.24-2.08,22.51,5.54h0Z"/>
    <path class="cls-12" d="M1464.59,889.13c10.52,45.44,13.04,91.24,7.62,137.44-.94,8.11-2.3,15.7-4.02,22.82-1.33,5.53-3.97,12.7-7.91,21.57-5.53,12.5-10.18,24.72-14,36.65-1.73,5.41-5.7,13.29-11.85,23.61-1.64,2.75-3.2,6.26-4.71,10.57-1.22,3.43-2.55,7.09-4,10.91l-14.77,20.86-52.3,67.8c-7,6.6-12.58,13.58-16.78,20.92-3.06,5.39-4.73,4.99-5.02-1.22l-1.33-29.96,1.11.88c1.05.85,2.64.09,2.64-1.28v-20.15c0-.96.23-1.87.71-2.72,5.53-9.75,14.06-22.68,18.25-34.27,4.79-13.32,7.74-26.79,8.84-40.42,1.3-16.41,1.93-35,1.87-55.75,4.14,5.19,8.19,6.04,12.19,2.55,5.61-4.88,10.63-8.99,15.05-12.33,6.49-4.9,11.31-9.16,14.51-12.78,14.57-16.61,24.01-29.79,28.32-39.54,11.59-26.28,19.73-46.23,24.4-59.89,2.01-5.9,2.72-13.24,2.13-22.05-.96-14.71-1.28-29.45-.96-44.22h0Z"/>
    <path class="cls-6" d="M754.53,911.3c5.13,12.73,10.03,22.68,14.71,29.85,18.62,28.57,41.72,52.98,69.27,73.21,13.61,10.01,29.36,18.62,47.25,25.85,31.21,12.61,57.65,21.66,89.37,23.72,29.11,1.9,48.89,2.32,59.3,1.28,14.12-1.39,25.99-3.32,35.66-5.84,4.34-1.13,8.08-2.72,11.25-4.79,1.96-1.28,1.93-4.14-.06-5.36-5.16-3.15-9.52-5.39-13.1-6.72-15.31-5.75-29.31-11.54-41.98-17.4-1.42-.65-17.12-9.07-47.08-25.2-.82-.45-.96-1.05-.42-1.81l.82-1.11c.14-.2.4-.26.62-.17,6.83,2.78,13.89,6.09,21.12,9.92,6.49,3.46,13.35,6.43,20.58,8.9,42.57,14.63,86.25,22.65,131.06,24.06,9.78.31,19.59-.31,29.48-1.81,8.08-1.25,17.83-2.61,29.19-4.08,13.01-1.67,31.24-6.94,54.65-15.76.85-.31,1.81,0,2.32.74,2.86,4.03,5.39,8.31,7.54,12.84,8.45,17.94,18.68,41.84,30.67,71.71,16.35,40.79,25.79,83.16,28.29,127.07-6.21-24.12-12.41-48.24-18.59-72.36-2.52-9.89-7.71-25.03-13.32-37.33-5.24-11.54-8.53-18.76-9.81-21.74-3.12-7.17-6.66-14.26-10.66-21.29-6.26-11.05-10.49-19.25-12.64-24.6-.45-1.16-1.76-1.73-2.92-1.3-28,10.4-57.26,14.31-87.73,11.71-6.09-.54-12.64-.94-19.61-1.25-10.23-.45-16.78-.99-19.64-1.62-17.52-3.91-34.58-7.09-51.16-9.52-.94-.14-1.73.11-2.38.82-7.91,8.56-12.81,13.35-14.77,14.34-9.95,5.16-21.17,8.08-33.62,8.76-41.86,2.3-81.49-2.15-118.88-13.38-18.74-5.64-36.42-12.19-53.12-19.67-27.38-12.3-52.98-29-76.78-50.08-12.5-11.05-23.33-26.02-32.6-37.67-3.49-4.37-5.36-3.74-5.58,1.84-.43,9.24-1.87,18.2-4.39,26.84-2.1,7.14-6.32,15.79-8.96,23.87-3.26,10.03-5.27,16.07-6.04,18.11-9.89,26.28-19.93,53.09-30.1,80.44-4.17,11.2-7.31,20.89-9.38,29.05-7.62,29.93-10.06,52.92-14.94,92.01-1.53,12.41-6.09,24.94-8.45,37.78l.6-62.05c3-38.72,8.25-73.72,22.22-107.88,9.18-22.51,19.78-47.22,31.83-74.18,7.43-16.58,12.44-31.8,20.83-55.16,3.26-9.07,6.63-26.93,10.06-53.6h0Z"/>
    <path class="cls-14" d="M1335.06,1230.4c.14.23.31.45.48.71l1.33,29.96c.28,6.21,1.96,6.6,5.02,1.22,4.2-7.34,9.78-14.31,16.78-20.92.65.6.94,1.13.85,1.67l-6.63,20.35-11.08,30.3-14.74,36.68c-.34.85-.48,1.73-.4,2.64l.2,1.93c-1.3.57-2.1,1.13-2.41,1.73-14.99,30.61-34.81,56.83-59.41,78.68-5.39,4.76-12.64,9.95-21.8,15.59-24.72,15.19-50.51,26.73-77.41,34.64-12.1.74-28.34,3.49-48.67,8.28-30.19,7.09-64.06,10.91-101.59,11.48-5.98.09-19.59.06-40.76-.03-8.7-.03-17.97-.65-27.81-1.81-13.04-1.59-22.17-2.81-27.35-3.66-3.88-.65-7.17-.88-9.92-.68-.94.06-1.81-.11-2.69-.48-3.51-1.56-7.2-2.04-11.08-1.45-.11.03-.14.14-.11.31.06.26.23.34.48.31,2.64-.54,4.88-.08,6.72,1.33.71.54,1.5.88,2.38,1.05,4.28.77,6.35,2.32,6.26,4.71-6.6.91-10.83,1.08-12.61.51-4.9-1.5-9.81-2.81-14.77-3.85l5.39-.25c.94-.03,1.16-.45.62-1.22-.6-.85-1.19-1.33-1.84-1.45-37.44-7.37-71.14-18.23-101.13-32.57-21.6-10.35-42.01-25.4-61.2-45.21-16.38-16.92-31.18-38.21-44.39-63.92-.82-1.62-2.35-2.27-4.59-1.93,1.13-.99,1.47-2.04,1.02-3.2-3.4-9.04-6.97-18.03-10.71-26.96-4.08-9.72-7.31-18.03-9.69-24.89-2.89-8.36-5.75-16.78-8.56-25.25l-7.17-12.58c.08-.54.74-1.5,1.96-2.95l22.73,27.01c.26.28.62.43,1.02.37,1.13-.2,1.53-.99,1.22-2.44,2.35-12.84,6.92-25.37,8.45-37.78,4.88-39.09,7.31-62.07,14.94-92.01,2.07-8.16,5.22-17.86,9.38-29.05,10.18-27.35,20.21-54.17,30.1-80.44.77-2.04,2.78-8.08,6.04-18.11,2.64-8.08,6.86-16.72,8.96-23.87,2.52-8.65,3.97-17.6,4.39-26.84.23-5.58,2.1-6.21,5.58-1.84,9.27,11.65,20.1,26.62,32.6,37.67,23.81,21.09,49.4,37.78,76.78,50.08,16.69,7.48,34.38,14.03,53.12,19.67,37.39,11.22,77.01,15.67,118.88,13.38,12.44-.68,23.67-3.6,33.62-8.76,1.96-.99,6.86-5.78,14.77-14.34.65-.71,1.45-.96,2.38-.82,16.58,2.44,33.64,5.61,51.16,9.52,2.86.62,9.41,1.16,19.64,1.62,6.97.31,13.52.71,19.61,1.25,30.47,2.61,59.72-1.3,87.73-11.71,1.16-.43,2.47.14,2.92,1.3,2.15,5.36,6.38,13.55,12.64,24.6,4,7.03,7.54,14.12,10.66,21.29,1.28,2.98,4.56,10.2,9.81,21.74,5.61,12.3,10.8,27.44,13.32,37.33,6.18,24.12,12.39,48.24,18.59,72.36M795.27,1074.08c-11.39,2.58-30.95,9.35-28.91,23.61.54,3.8,2.75,5.92,6.6,6.38,1.5.17,3.88-.6,7.2-2.32,5.24-2.69,12.39-6.66,19.5-8.25,7.11-1.62,15.25-1.13,21.14-.94,3.71.11,6.24-.23,7.51-1.02,3.29-2.07,4.34-4.93,3.2-8.59-4.28-13.75-24.86-11.45-36.25-8.87M1200.7,1093.81c4.31,1.22,9.89,3.97,16.78,8.3,5.13,3.2,9.3,2.1,12.44-3.37.45-.79.6-1.64.43-2.52-1.16-6.52-4.85-11.39-11.05-14.63-8.82-4.62-17.97-7.62-27.47-9.04-7.82-1.16-15.14.6-21.94,5.22-2.64,1.79-3.97,4-3.97,6.6.03,4.22,1.67,7,4.93,8.36.94.4,1.9.54,2.92.4,11.45-1.36,20.44-1.13,26.93.68M810.41,1275.57c30.8,5.93,60.73-14.93,66.82-46.62,6.1-31.69-13.91-62.19-44.73-68.1-30.8-5.93-60.73,14.93-66.82,46.62-6.1,31.69,13.91,62.19,44.73,68.1M1172.88,1276.61c31.37,3.19,59.43-20.28,62.71-52.43,3.27-32.16-19.52-60.79-50.88-63.97-31.37-3.19-59.43,20.28-62.71,52.43-3.27,32.16,19.52,60.79,50.88,63.97M979.11,1240.29c-2.69-2.32-3.77-1.9-3.23,1.28,1.64,9.44,7.45,14.8,17.43,16.13,11.14,1.5,20.75-.94,28.83-7.37.91-.71,1.81-2.1,2.52-3.91.48-1.16.6-2.38.37-3.71-.2-1.05-.68-1.19-1.45-.48-8.08,7.51-17.6,10.54-28.51,9.1-3.37-.43-6.24-1.79-8.62-4.08-4.45-4.28-6.92-6.58-7.34-6.94M818.89,1312.71c1.63-20.83-15.24-39.14-37.7-40.9-22.47-1.76-42,13.69-43.63,34.49-1.63,20.83,15.24,39.14,37.7,40.9,22.47,1.76,42-13.69,43.63-34.49M1265.27,1309.22c.09-20.95-18.03-37.98-40.4-38.07-22.38-.09-40.58,16.84-40.66,37.78-.09,20.95,18.03,37.98,40.4,38.07,22.38.09,40.58-16.84,40.66-37.78M952.09,1377.14c6.09,4.28,12.58,7.54,19.53,9.84,5.02,1.67,12.13,2.58,21.29,2.75,8.19.14,16.35.45,24.49.94,7.23.43,15.11-2.01,23.64-7.31,14.12-5.98,25.76-14.63,34.92-25.94,12.41-15.33,20.12-31.8,16.21-51.7-1.96-9.86-7.94-14.68-17.97-14.46-4.96.11-9.84.43-14.63.94l-114.62-.45c-8.59-.71-14.29-.85-17.09-.37-24.46,4.14-17.94,36-8.93,50.71,9.86,16.1,20.92,27.78,33.16,35.06h0Z"/>
    <path class="cls-5" d="M706.43,1019.37c-7.74,20.24-14.26,40.56-19.53,60.97-.71,2.72-2.95,5.84-3.37,7.94-1.22,5.98-2.86,12.3-4.93,18.93-2.24,7.28-4,13.52-5.24,18.76-2.18,9.07-3.94,16.16-5.3,21.29-.43,1.7-1.02,1.76-1.73.14-12.73-29.05-20.49-59.52-23.27-91.41-.09-.99-1.08-1.62-1.98-1.25-.2.08-.43.23-.62.37-.28.2-.45.54-.51,1.02-2.41,23.84-3.12,41.1-2.13,51.81,1.9,19.98,6.38,39.34,13.49,58.08,2.32,6.15,4.39,12.39,6.18,18.71,2.52,8.87,6.58,14.68,12.1,17.38l-.6,62.05c.31,1.45-.08,2.24-1.22,2.44-.4.06-.77-.09-1.02-.37l-22.73-27.01c-27.35-28.6-51.47-59.44-72.39-92.54-25.4-39.43-41.27-82.23-47.59-128.43,60.49,2.89,121.29,3.26,182.4,1.13h0Z"/>
    <path class="cls-8" d="M799.66,1093.49c-7.11,1.59-14.26,5.56-19.5,8.25-3.32,1.73-5.7,2.49-7.2,2.32-3.85-.45-6.07-2.58-6.6-6.38-2.04-14.26,17.52-21.03,28.91-23.61,11.39-2.58,31.97-4.88,36.25,8.87,1.13,3.66.08,6.52-3.2,8.59-1.28.79-3.8,1.13-7.51,1.02-5.9-.2-14.03-.68-21.14.94h0Z"/>
    <path class="cls-3" d="M1200.7,1093.81c-6.49-1.81-15.48-2.04-26.93-.68-1.02.14-1.98,0-2.92-.4-3.26-1.36-4.9-4.14-4.93-8.36,0-2.61,1.33-4.82,3.97-6.6,6.8-4.62,14.12-6.38,21.94-5.22,9.5,1.42,18.65,4.42,27.47,9.04,6.21,3.23,9.89,8.11,11.05,14.63.17.88.03,1.73-.43,2.52-3.15,5.47-7.31,6.58-12.44,3.37-6.89-4.34-12.47-7.09-16.78-8.3h0Z"/>
    <path class="cls-8" d="M810.41,1275.57c-30.82-5.92-50.83-36.42-44.73-68.1,6.09-31.69,36.02-52.55,66.82-46.62,30.82,5.92,50.83,36.42,44.73,68.1-6.09,31.69-36.02,52.55-66.82,46.62M838.04,1214.88c7.4-.86,12.64-8.06,11.7-16.04-.93-7.98-7.7-13.76-15.1-12.9-7.4.86-12.64,8.06-11.7,16.04.93,7.98,7.7,13.76,15.1,12.9h0Z"/>
    <path class="cls-8" d="M1172.88,1276.61c-31.36-3.19-54.15-31.81-50.88-63.97,3.28-32.16,31.34-55.62,62.71-52.43,31.36,3.19,54.15,31.81,50.88,63.97-3.28,32.16-31.34,55.62-62.71,52.43M1196.55,1214.7c7.24-2.53,10.93-10.92,8.19-18.72-2.73-7.82-10.84-12.07-18.08-9.53-7.24,2.53-10.93,10.92-8.19,18.72,2.73,7.82,10.84,12.07,18.08,9.53h0Z"/>
    <path class="cls-13" d="M1196.55,1214.7c-7.24,2.54-15.35-1.71-18.08-9.53-2.74-7.8.95-16.19,8.19-18.72,7.24-2.54,15.35,1.71,18.08,9.53,2.74,7.8-.95,16.19-8.19,18.72h0Z"/>
    <path class="cls-13" d="M838.04,1214.88c-7.4.86-14.17-4.92-15.1-12.9-.94-7.98,4.3-15.18,11.7-16.04,7.4-.86,14.17,4.92,15.1,12.9.94,7.98-4.3,15.18-11.7,16.04h0Z"/>
    <path class="cls-12" d="M979.11,1240.29c.43.37,2.89,2.66,7.34,6.94,2.38,2.3,5.24,3.66,8.62,4.08,10.91,1.45,20.44-1.59,28.51-9.1.77-.71,1.25-.57,1.45.48.23,1.33.11,2.55-.37,3.71-.71,1.81-1.62,3.2-2.52,3.91-8.08,6.43-17.69,8.87-28.83,7.37-9.98-1.33-15.79-6.69-17.43-16.13-.54-3.17.54-3.6,3.23-1.28h0Z"/>
    <path class="cls-14" d="M818.89,1312.71c-1.63,20.81-21.16,36.26-43.63,34.49-22.46-1.75-39.32-20.06-37.7-40.9,1.63-20.81,21.16-36.26,43.63-34.49,22.46,1.75,39.32,20.06,37.7,40.9h0Z"/>
    <path class="cls-14" d="M1265.27,1309.22c-.08,20.95-18.28,37.87-40.66,37.78-22.37-.08-40.49-17.12-40.4-38.07.08-20.95,18.28-37.87,40.66-37.78,22.37.08,40.48,17.12,40.4,38.07h0Z"/>
    <path class="cls-3" d="M944.95,1291.73c.09,4.34-.91,9.75.31,13.26,3.57,10.03,18.99,14.85,28.68,16.87,22.36,4.62,43.91,3.97,64.68-1.93,8.45-2.38,21.8-8.62,21.17-18.96-.26-4.14-.31-7.06-.23-8.79,4.79-.51,9.67-.82,14.63-.94,10.03-.23,16.01,4.59,17.97,14.46,3.91,19.9-3.8,36.37-16.21,51.7-9.16,11.31-20.81,19.95-34.92,25.94l-3.51.06c-1.25.03-1.33-.28-.23-.88l19.84-10.86c1.84-.99,1.84-3.68-.03-4.93-4.68-3.09-9.78-5.75-15.33-7.99-4.71-1.9-10.15-3.23-16.3-3.97-23.87-2.81-53.17-.94-73.36,13.49-.82.6-1.11,1.36-.85,2.32.37,1.42,1.33,2.49,2.89,3.26,1.59.77,1.11,3.17-.68,3.23l-1.39.06c-12.24-7.28-23.3-18.96-33.16-35.06-9.01-14.71-15.53-46.57,8.93-50.71,2.81-.48,8.5-.34,17.09.37h0Z"/>
    <path class="cls-13" d="M1059.58,1292.19c-.08,1.73-.03,4.65.23,8.79.62,10.35-12.73,16.58-21.17,18.96-20.78,5.9-42.32,6.55-64.68,1.93-9.69-2.01-25.11-6.83-28.68-16.87-1.22-3.51-.23-8.93-.31-13.26l114.62.45h0Z"/>
    <path class="cls-6" d="M1041.04,1383.34c-8.53,5.3-16.41,7.74-23.64,7.31-8.13-.48-16.3-.79-24.49-.94-9.16-.17-16.27-1.08-21.29-2.75-6.94-2.3-13.44-5.56-19.53-9.84l1.39-.06c1.79-.06,2.27-2.47.68-3.23-1.56-.77-2.52-1.84-2.89-3.26-.26-.96.03-1.73.85-2.32,20.18-14.43,49.49-16.3,73.36-13.49,6.15.74,11.59,2.07,16.3,3.97,5.56,2.24,10.66,4.9,15.33,7.99,1.87,1.25,1.87,3.94.03,4.93l-19.84,10.86c-1.11.6-1.02.91.23.88l3.51-.06h0Z"/>
  </g>
</svg>